<?xml version="1.0" standalone="no"?>
<!DOCTYPE svg PUBLIC "-//W3C//DTD SVG 20010904//EN"
 "http://www.w3.org/TR/2001/REC-SVG-20010904/DTD/svg10.dtd">
<svg version="1.0" xmlns="http://www.w3.org/2000/svg"
 width="900.000000pt" height="333.000000pt" viewBox="0 0 900.000000 333.000000"
 preserveAspectRatio="xMidYMid meet">
<metadata>
Created by potrace 1.10, written by Peter Selinger 2001-2011
</metadata>
<g transform="translate(0.000000,333.000000) scale(0.100000,-0.100000)"
fill="#000000" stroke="none">
<path d="M1150 3245 c-73 -15 -210 -54 -225 -65 -5 -4 -32 -16 -60 -26 -194
-72 -467 -297 -594 -489 -50 -77 -161 -292 -161 -313 0 -6 -9 -32 -21 -59 -50
-115 -70 -458 -40 -663 15 -97 54 -224 97 -316 13 -28 24 -54 24 -57 0 -4 27
-52 59 -107 138 -232 332 -415 574 -541 256 -133 510 -165 877 -110 57 9 65
11 219 69 243 92 498 311 638 545 73 125 141 265 150 311 3 17 10 36 15 43 28
35 58 256 58 420 0 134 -26 331 -50 375 -5 9 -19 44 -30 78 -51 152 -174 357
-285 478 -78 85 -230 207 -336 269 -137 81 -289 135 -444 159 -112 17 -378 17
-465 -1z m455 -190 c114 -19 242 -65 348 -127 26 -15 50 -28 53 -28 16 0 130
-95 199 -165 230 -233 353 -527 354 -840 0 -124 -26 -315 -54 -400 -32 -94
-105 -248 -152 -319 -53 -81 -239 -263 -328 -320 -87 -57 -223 -119 -325 -148
-105 -31 -214 -40 -379 -34 -140 5 -163 9 -263 41 -108 35 -242 96 -302 138
-55 39 -160 130 -214 187 -100 104 -223 309 -266 445 -62 195 -70 451 -22 690
41 204 148 386 334 567 146 142 241 201 447 280 121 46 393 62 570 33z"/>
<path d="M3785 3165 c-5 -1 -37 -8 -70 -15 -195 -39 -358 -179 -437 -375 -8
-22 -24 -59 -33 -82 -26 -61 -27 -422 -2 -470 10 -18 17 -40 17 -50 0 -36 93
-178 158 -241 113 -109 259 -162 450 -162 100 0 186 17 258 51 127 60 254 213
227 272 -12 26 -125 87 -161 87 -10 0 -42 -24 -70 -54 -29 -30 -74 -68 -99
-85 -45 -30 -50 -31 -163 -31 -104 0 -121 3 -166 25 -27 13 -68 42 -91 62 -42
38 -103 145 -103 181 0 11 -7 36 -15 55 -20 48 -21 241 -1 294 7 21 19 57 25
80 17 62 95 149 166 186 51 26 74 31 150 35 87 4 94 3 159 -29 48 -23 84 -51
122 -92 l53 -59 38 19 c94 48 143 86 143 110 0 80 -188 238 -315 265 -125 26
-206 34 -240 23z"/>
<path d="M7508 3004 c-26 -8 -50 -19 -53 -25 -4 -6 -11 -53 -15 -105 -5 -52
-14 -101 -20 -109 -8 -10 -32 -15 -69 -15 -31 0 -62 -5 -69 -12 -16 -16 -16
-142 1 -156 6 -5 38 -12 69 -14 32 -3 61 -7 64 -11 17 -16 24 -104 24 -308 0
-125 5 -250 10 -280 12 -63 45 -117 96 -156 37 -28 39 -28 181 -28 117 0 146
3 153 15 6 8 9 49 8 90 l-3 75 -75 5 c-86 6 -94 9 -117 53 -15 27 -18 69 -21
262 -5 287 -9 278 125 284 48 1 94 8 101 13 7 6 12 35 12 73 0 82 -17 95 -127
95 -43 0 -85 5 -93 10 -11 7 -16 39 -20 132 l-5 123 -55 2 c-30 1 -76 -5 -102
-13z"/>
<path d="M4960 2768 c-67 -29 -109 -53 -148 -85 -49 -40 -73 -40 -84 2 -17 62
-31 70 -119 70 -60 0 -82 -4 -89 -15 -11 -17 -12 -700 -1 -845 l6 -90 96 -3
c77 -2 99 0 109 13 9 11 14 70 16 208 6 314 10 364 33 400 48 78 116 117 205
117 38 0 61 6 77 19 22 17 24 27 24 99 0 64 -4 85 -19 101 -21 23 -65 27 -106
9z"/>
<path d="M6702 2766 c-60 -20 -149 -66 -168 -88 -29 -31 -57 -22 -80 25 -19
39 -24 43 -76 51 -67 11 -124 1 -133 -22 -4 -9 -9 -289 -11 -621 -4 -536 -3
-606 11 -628 15 -23 20 -24 118 -21 l102 3 6 190 c4 105 7 193 8 196 4 21 39
13 102 -24 l72 -41 147 -1 147 0 59 40 c57 39 119 119 141 182 5 15 16 44 23
63 20 56 25 300 7 358 -8 26 -18 61 -22 77 -13 57 -73 151 -121 188 -90 70
-240 103 -332 73z m128 -201 c148 -77 169 -423 33 -552 -53 -50 -81 -57 -179
-48 -89 8 -123 29 -176 104 l-38 54 0 140 c0 108 4 147 16 173 20 42 95 121
126 134 38 15 185 12 218 -5z"/>
<path d="M8367 2769 c-126 -30 -250 -131 -305 -249 -32 -70 -35 -83 -39 -200
-3 -70 0 -150 6 -182 24 -131 123 -264 235 -317 131 -62 335 -64 452 -5 71 36
165 135 208 218 l36 69 0 165 0 165 -35 75 c-48 99 -133 186 -234 235 -72 36
-78 37 -180 36 -58 -1 -123 -5 -144 -10z m240 -202 c40 -21 110 -117 124 -171
6 -23 9 -86 7 -141 -4 -115 -22 -162 -91 -232 -52 -54 -91 -67 -176 -59 -79 8
-129 37 -168 99 -49 74 -53 93 -53 221 0 115 2 123 29 172 34 58 76 101 118
120 38 18 168 12 210 -9z"/>
<path d="M5210 2753 c-14 -2 -29 -8 -33 -12 -7 -7 27 -112 51 -157 6 -10 33
-75 62 -144 28 -69 55 -134 59 -145 5 -11 23 -56 41 -100 18 -44 44 -103 56
-132 13 -28 24 -55 24 -58 0 -4 14 -37 30 -75 36 -82 39 -145 9 -210 -26 -57
-76 -110 -105 -110 -43 0 -74 -60 -74 -140 0 -64 22 -74 110 -50 59 16 96 35
148 77 95 77 137 159 281 543 18 47 38 99 45 115 35 77 78 189 110 280 36 107
79 213 103 258 24 45 13 54 -75 61 -99 9 -129 2 -148 -36 -14 -28 -69 -175
-134 -358 -14 -41 -32 -85 -38 -97 -7 -12 -12 -29 -12 -38 0 -28 -30 -76 -46
-73 -9 2 -29 37 -46 78 -30 76 -54 130 -70 163 -8 17 -51 136 -90 252 -31 91
-47 103 -148 109 -47 2 -96 2 -110 -1z"/>
<path d="M6816 1464 c-14 -14 -16 -89 -16 -673 0 -498 3 -660 12 -669 14 -14
186 -16 208 -2 13 8 15 95 18 664 3 770 16 696 -122 696 -64 0 -88 -4 -100
-16z"/>
<path d="M7921 1466 c-11 -13 -16 -113 -20 -402 -1 -98 -13 -109 -73 -67 -21
15 -44 31 -51 34 -7 3 -26 14 -44 23 -49 25 -205 22 -278 -6 -108 -41 -203
-156 -241 -290 -25 -91 -29 -245 -9 -329 45 -185 141 -301 273 -329 139 -29
272 -1 366 77 22 18 45 33 52 33 13 0 24 -22 24 -49 0 -37 32 -51 116 -51 49
0 85 5 92 12 9 9 12 171 12 669 l0 658 -22 15 c-30 21 -180 22 -197 2z m-172
-595 c62 -20 108 -60 141 -122 21 -39 24 -58 24 -159 1 -108 -1 -118 -29 -174
-17 -34 -48 -73 -74 -95 l-44 -36 -101 0 c-96 0 -103 2 -138 28 -22 17 -50 54
-68 90 -29 57 -30 66 -30 185 0 124 0 124 34 181 38 61 58 78 126 102 59 22
93 21 159 0z"/>
<path d="M3204 1385 c-3 -8 1 -36 10 -62 9 -25 16 -54 16 -64 0 -9 7 -30 15
-45 8 -16 15 -40 15 -54 0 -14 10 -52 21 -85 12 -33 29 -91 39 -130 41 -159
69 -255 79 -274 6 -11 11 -30 11 -43 0 -13 12 -59 26 -103 14 -44 29 -100 34
-125 22 -105 62 -245 78 -266 16 -23 21 -24 146 -21 125 2 129 3 147 27 10 14
27 70 38 126 11 55 24 112 29 125 5 13 18 60 28 104 9 44 21 87 25 96 4 9 17
60 29 115 35 171 73 306 87 311 17 7 41 -22 48 -57 38 -183 115 -499 157 -640
11 -36 24 -87 29 -115 19 -94 21 -95 167 -95 l128 0 17 29 c9 16 17 42 17 58
1 15 14 66 30 113 17 47 30 100 30 118 0 18 6 45 14 60 7 15 19 52 25 82 35
160 54 242 73 310 12 41 27 102 34 135 17 79 40 170 70 274 18 63 21 88 13 98
-18 21 -202 18 -224 -4 -22 -22 -35 -57 -35 -97 0 -18 -6 -52 -14 -77 -7 -24
-18 -66 -24 -94 -28 -133 -67 -298 -88 -371 -13 -45 -24 -93 -24 -105 -1 -31
-36 -109 -49 -109 -6 0 -13 12 -17 28 -3 15 -17 63 -29 107 -55 187 -108 383
-116 420 -20 98 -69 268 -83 291 -16 23 -20 24 -139 24 -115 0 -125 -1 -144
-22 -21 -24 -37 -74 -48 -148 -3 -25 -13 -65 -20 -90 -8 -25 -17 -67 -21 -95
-4 -27 -17 -81 -30 -120 -13 -38 -24 -85 -24 -103 0 -19 -6 -48 -14 -65 -17
-37 -46 -154 -46 -183 0 -22 -18 -44 -36 -44 -7 0 -17 19 -22 43 -16 68 -70
270 -81 302 -5 17 -16 57 -24 90 -9 33 -25 101 -38 150 -12 50 -30 125 -39
167 -25 115 -29 118 -172 118 -96 0 -120 -3 -124 -15z"/>
<path d="M5277 1081 c-26 -10 -53 -23 -59 -29 -7 -7 -18 -12 -25 -12 -16 0
-151 -135 -164 -163 -5 -12 -13 -29 -18 -37 -14 -24 -39 -111 -50 -174 -12
-65 1 -181 25 -228 8 -15 14 -36 14 -47 0 -11 28 -57 63 -103 109 -145 212
-197 391 -198 219 -1 379 116 455 335 27 76 29 244 5 320 -50 153 -136 262
-253 318 -63 30 -73 31 -201 34 -110 2 -144 -1 -183 -16z m291 -194 c62 -39
77 -58 103 -133 25 -73 26 -223 3 -306 -14 -49 -26 -67 -71 -107 -57 -51 -84
-61 -161 -61 -92 0 -181 70 -214 167 -33 98 -42 159 -30 205 6 24 14 59 18 78
12 63 62 126 134 169 26 16 52 21 100 21 57 0 73 -4 118 -33z"/>
<path d="M6494 1075 c-27 -13 -71 -43 -98 -65 -26 -22 -54 -40 -61 -40 -17 0
-35 23 -44 57 -11 42 -44 55 -130 50 -40 -2 -76 -9 -80 -15 -3 -5 -3 -70 0
-143 4 -74 8 -251 9 -394 2 -143 5 -294 9 -335 l6 -75 94 -3 c60 -2 98 1 107
9 11 9 14 60 14 265 0 310 6 339 95 420 54 50 58 52 133 59 42 4 83 12 90 17
19 16 16 182 -4 202 -23 23 -83 19 -140 -9z"/>
</g>
</svg>
